<svg width="70" height="70" viewBox="0 0 70 70" fill="none" xmlns="http://www.w3.org/2000/svg">
<path d="M43.9067 24.3487C41.6851 24.3411 39.4838 24.7716 37.4287 25.6156C35.3737 26.4596 33.5052 27.7006 31.9303 29.2675C30.3554 30.8343 29.1048 32.6964 28.2503 34.747C27.3957 36.7977 26.9539 38.9968 26.9501 41.2184V58.2619C26.9501 58.9538 27.2249 59.6173 27.7141 60.1066C28.2034 60.5958 28.8669 60.8706 29.5588 60.8706H35.6458C36.3376 60.8706 37.0012 60.5958 37.4904 60.1066C37.9796 59.6173 38.2545 58.9538 38.2545 58.2619V41.2184C38.2539 40.4282 38.4199 39.6468 38.7415 38.9251C39.0632 38.2034 39.5333 37.5576 40.1213 37.0298C40.7093 36.502 41.402 36.104 42.1541 35.8618C42.9062 35.6196 43.7009 35.5386 44.4864 35.6241C45.8951 35.8016 47.1897 36.4898 48.1247 37.5584C49.0597 38.6269 49.57 40.0015 49.5589 41.4213V58.2619C49.5589 58.9538 49.8337 59.6173 50.3229 60.1066C50.8122 60.5958 51.4757 60.8706 52.1676 60.8706H58.2546C58.9464 60.8706 59.61 60.5958 60.0992 60.1066C60.5884 59.6173 60.8633 58.9538 60.8633 58.2619V41.2184C60.8595 38.9968 60.4177 36.7977 59.5631 34.747C58.7085 32.6964 57.458 30.8343 55.883 29.2675C54.3081 27.7006 52.4396 26.4596 50.3846 25.6156C48.3296 24.7716 46.1283 24.3411 43.9067 24.3487Z" fill="black"/>
<path d="M19.1337 26.9575H11.3076C9.86681 26.9575 8.69885 28.1255 8.69885 29.5662V58.262C8.69885 59.7028 9.86681 60.8707 11.3076 60.8707H19.1337C20.5744 60.8707 21.7424 59.7028 21.7424 58.262V29.5662C21.7424 28.1255 20.5744 26.9575 19.1337 26.9575Z" fill="black"/>
<path d="M15.2207 21.7379C18.8226 21.7379 21.7425 18.818 21.7425 15.2161C21.7425 11.6142 18.8226 8.69434 15.2207 8.69434C11.6189 8.69434 8.69897 11.6142 8.69897 15.2161C8.69897 18.818 11.6189 21.7379 15.2207 21.7379Z" fill="black"/>
</svg>
